<?xml version="1.0" standalone="no"?><!DOCTYPE svg PUBLIC "-//W3C//DTD SVG 1.1//EN" "http://www.w3.org/Graphics/SVG/1.1/DTD/svg11.dtd"><svg t="1654221575549" class="icon" viewBox="0 0 1024 1024" version="1.1" xmlns="http://www.w3.org/2000/svg" p-id="3441" width="128" height="128" xmlns:xlink="http://www.w3.org/1999/xlink"><defs><style type="text/css"></style></defs><path d="M768 153.6v25.6a25.6 25.6 0 1 1-51.2 0V153.6H307.2v25.6a25.6 25.6 0 0 1-51.2 0V153.6H153.6a51.2 51.2 0 0 0-51.2 51.2v153.6h819.2V204.8a51.2 51.2 0 0 0-51.2-51.2h-102.4z m0-51.2h102.4a102.4 102.4 0 0 1 102.4 102.4v665.6a102.4 102.4 0 0 1-102.4 102.4H153.6a102.4 102.4 0 0 1-102.4-102.4V204.8a102.4 102.4 0 0 1 102.4-102.4h102.4v-25.6a25.6 25.6 0 0 1 51.2 0V102.4h409.6v-25.6a25.6 25.6 0 1 1 51.2 0V102.4zM102.4 409.6v460.8a51.2 51.2 0 0 0 51.2 51.2h716.8a51.2 51.2 0 0 0 51.2-51.2V409.6H102.4z" fill="#ffffff" p-id="3442" data-spm-anchor-id="a313x.7781069.0.i0" class="selected"></path></svg>