 <svg viewBox="0 0 500 500" version="1.1" id="svg_null">
                    <g
                        id="root"
                        stroke="none"
                        stroke-width="1"
                        fill="none"
                        fill-rule="evenodd"
                    >
                        <rect
                            id="background"
                            fill="#FFF"
                            x="0"
                            y="0"
                            width="500"
                            height="500"
                        ></rect>
                        <g
                            id="shape"
                            transform="translate(98.000000, 70.000000)"
                        >
                            <path
                                d="M65.19 189.952c-4.136 0 -7.488 -3.35 -7.488 -7.488c0 -4.136 3.352 -7.49 7.488 -7.49c4.135 0 7.49 3.354 7.49 7.49c0 4.139 -3.355 7.488 -7.49 7.488zm220.08 -189.214l27.613 0c0 15.62 -12.215 28.359 -27.613 29.262l0 0.16l-53.645 0l0 -0.076c-1.2 0 -2.376 -0.093 -3.536 -0.233c22.214 24.98 35.71 57.88 35.71 93.936c0 78.132 -63.34 141.473 -141.473 141.473c-44.266 0 -83.762 -20.35 -109.7 -52.186c-2.826 -3.463 -5.482 -7.068 -7.966 -10.796c-2.473 -5.022 -3.862 -10.666 -3.862 -16.64c0 -20.855 16.904 -37.76 37.763 -37.76l83.963 0c36.103 0 65.82 -27.327 69.623 -62.425l0.003 0l0 -0.044c0.27 -2.49 0.413 -5.015 0.413 -7.575c0 -2.56 0.018 -50.93 0.018 -50.93l23.3 -26.166l15.744 0l51.912 0l1.733 0zm-98.494 248.954c0 0 -12.782 -36.689 -61.927 -36.689l-112.223 0c25.938 31.836 65.434 52.183 109.7 52.183c23.213 0 45.12 -5.59 64.45 -15.494z"
                                id="shape.primary"
                                fill="#f87d09"
                            ></path>
                            <path
                                d="M235.412 235.84l27.613 0c0 15.623 -12.217 28.359 -27.613 29.259l0 0.163l-31.824 0l26.826 -29.422l3.265 0l1.733 0zm-48.636 13.852c-19.33 9.905 -41.237 15.494 -64.45 15.494c-44.266 0 -83.762 -20.347 -109.7 -52.183l112.223 0c49.145 0 61.927 36.689 61.927 36.689zm-116.321 -166.221c2.91 2.91 2.91 7.625 0 10.534l-5.266 5.269l-5.266 -5.269c-2.907 -2.91 -2.907 -7.625 0 -10.534c2.907 -2.907 7.625 -2.907 10.532 0zm117.143 -82.732c0 15.62 -12.217 28.355 -27.613 29.261l0 0.16l-53.641 0l0 -0.075c-16.211 0 -29.35 -13.141 -29.35 -29.346l29.35 0l51.908 0l1.733 0l27.613 0z"
                                id="shape.primary"
                                fill-opacity=".8"
                                fill="#f87d09"
                            ></path>
                        </g>
                        <g
                            id="Group"
                            transform="translate(20.000000, 371.000000)"
                        >
                            <rect
                                id="Rectangle-Copy"
                                x="0"
                                y="0"
                                width="460"
                                height="80"
                            ></rect>
                            <text
                                id="headerText.primary"
                                font-family="Inconsolata"
                                font-size="60"
                                font-weight="700"
                                letter-spacing="7.5"
                                fill="#f87d09"
                                data-text-alignment="C"
                                font-style="normal"
                            >
                                <tspan x="230" y="340"></tspan>
                            </text>
                        </g>
                    </g>
                </svg>