<?xml version="1.0" standalone="no"?><!DOCTYPE svg PUBLIC "-//W3C//DTD SVG 1.1//EN" "http://www.w3.org/Graphics/SVG/1.1/DTD/svg11.dtd"><svg t="1639473292972" class="icon" viewBox="0 0 1024 1024" version="1.1" xmlns="http://www.w3.org/2000/svg" p-id="3779" width="48" height="48" xmlns:xlink="http://www.w3.org/1999/xlink"><defs><style type="text/css"></style></defs><path d="M253.125539 756.458152H770.875485v57.552673H253.125539zM396.940704 842.747252H627.060319v57.554719H396.940704zM943.454707 555.14455v-57.554719h-102.021378c-8.76153-51.345309-29.436367-99.547028-59.210425-141.371515l83.200768-83.143463-40.67327-40.700899-79.435008 79.408402c-54.605556-55.419083-126.681984-92.69396-204.544174-100.222409V123.697006h-57.541416v87.834289c-75.446169 7.218387-143.379238 42.385258-194.642683 95.811968l-74.95396-74.970333L172.958868 273.07383l79.421705 79.407379c-28.510277 42.218459-48.05948 91.598001-56.037159 145.107599H80.54427v57.554718h111.684438c0.477883 39.63257 8.271367 78.142575 22.835033 115.052133H109.30935v57.497414h805.382324v-57.497414h-91.401527c14.549338-36.908534 22.360219-75.418539 22.863684-115.052133h97.300876v0.001024zM277.562042 670.196682c-18.566831-37.668849-28.032394-77.693345-28.032394-119.066554 0-153.732006 120.191166-283.616932 262.476492-283.616933 147.468362 0 276.844706 132.525051 276.844705 283.616933 0 41.374234-9.493193 81.398729-28.032394 119.066554H277.562042z" p-id="3780" fill="#515151"></path></svg>