<?xml version="1.0" standalone="no"?><!DOCTYPE svg PUBLIC "-//W3C//DTD SVG 1.1//EN" "http://www.w3.org/Graphics/SVG/1.1/DTD/svg11.dtd"><svg t="1639473322440" class="icon" viewBox="0 0 1549 1024" version="1.1" xmlns="http://www.w3.org/2000/svg" p-id="4179" width="72.609375" height="48" xmlns:xlink="http://www.w3.org/1999/xlink"><defs><style type="text/css"></style></defs><path d="M1432.050832 562.347958h-1.239334c-4.33767-0.309834-100.695915-7.74584-175.36581-63.515885-15.801513 11.773676-48.953707 33.152194-92.640242 45.85537-54.840545 15.801513-136.946445 20.139183-221.840847-45.85537-84.584569 65.994554-167.000303 61.656884-222.150681 45.85537-43.996369-12.703177-77.148563-34.081694-92.950075-45.85537-84.894402 65.994554-168.239637 61.656884-224.009683 45.85537-44.92587-12.703177-79.007564-34.391528-94.809077-46.165204-74.979728 55.770045-171.647806 61.656884-175.675643 61.966717-8.67534 0.619667-15.801513-6.196672-16.42118-14.562178-0.619667-8.67534 6.196672-15.801513 14.562179-16.42118 0.929501 0 99.456581-6.196672 167.619969-62.586385 5.886838-4.957337 14.252345-4.647504 19.82935 0.309834 0.309834 0.309834 38.419365 32.222693 94.499244 48.024206 73.43056 20.449017 142.213616 4.33767 204.490166-48.024206 5.886838-4.957337 14.562179-4.957337 20.139183 0.309833 0.309834 0.309834 37.489864 32.222693 92.640242 48.024206 72.191225 20.449017 140.354614 4.33767 202.631165-48.024206 5.886838-4.957337 14.252345-4.957337 19.829349 0 62.276551 52.67171 130.749773 68.783056 203.250832 47.714373 54.530711-15.801513 90.781241-47.404539 91.091075-47.714373 5.577005-4.957337 14.252345-5.267171 20.139183-0.309833 68.163389 56.699546 166.690469 64.135552 167.929803 64.135552 8.67534 0.619667 14.872012 8.055673 14.252345 16.42118-0.929501 8.365507-7.74584 14.562179-15.801513 14.562179zM1274.965204 721.602421h-1.239334c-4.33767-0.309834-100.695915-7.74584-175.675643-63.515885-84.894402 66.304387-167.310136 61.966717-222.460514 46.165204-43.996369-12.703177-77.148563-34.081694-92.950076-45.855371-84.894402 65.994554-168.239637 61.656884-224.009682 45.855371-44.92587-12.703177-79.007564-34.391528-94.809078-46.165204-74.979728 55.770045-171.647806 61.656884-175.675643 61.966717-8.365507 0.619667-15.801513-6.196672-16.42118-14.562179-0.619667-8.67534 6.196672-15.801513 14.562179-16.42118 0.929501 0 99.456581-6.196672 167.61997-62.586384 5.886838-4.957337 14.252345-4.647504 19.829349 0.309833 0.309834 0.309834 38.419365 32.222693 94.499244 48.024206 73.43056 20.449017 142.213616 4.33767 204.490166-48.024206 5.886838-4.957337 14.562179-4.957337 20.139183 0.309834 0.309834 0.309834 37.489864 32.222693 92.640242 48.024206 72.191225 20.449017 140.354614 4.33767 202.631165-48.024206 2.788502-2.478669 6.196672-3.718003 9.914675-3.718003h0.309834c3.718003 0 7.126172 1.239334 9.914674 3.408169 68.163389 56.389713 166.690469 64.135552 167.929804 64.135553 8.67534 0.619667 14.872012 8.055673 14.252345 16.42118-0.619667 8.055673-7.436006 14.252345-15.49168 14.252345zM1117.879576 881.166717h-1.239334c-4.33767-0.309834-101.93525-7.74584-176.605144-63.515885-84.894402 65.994554-168.239637 61.966717-224.009682 45.855371-44.92587-12.703177-79.007564-34.391528-94.809077-46.165205-74.979728 55.770045-171.647806 61.656884-175.675643 61.966718-8.67534 0.619667-15.801513-6.196672-16.42118-14.562179-0.619667-8.67534 6.196672-15.801513 14.562178-16.42118 0.929501 0 99.456581-6.196672 167.61997-62.586384 5.886838-4.957337 14.252345-4.647504 19.82935 0.309833 0.309834 0.309834 38.419365 32.222693 94.499243 48.024206 73.43056 20.449017 142.213616 4.33767 204.490167-48.024206 5.577005-4.957337 13.942511-4.957337 19.829349 0 68.163389 56.699546 168.239637 64.135552 169.169138 64.135553 8.67534 0.619667 14.872012 8.055673 14.252345 16.42118-0.619667 8.365507-7.436006 14.562179-15.49168 14.562178z" p-id="4180" fill="#515151"></path><path d="M1150.102269 525.787595c-8.67534 0-15.491679-6.816339-15.491679-15.49168 0-194.885325-158.634796-353.520121-353.520121-353.520121-194.885325 0-353.520121 158.634796-353.520121 353.520121 0 8.67534-6.816339 15.491679-15.491679 15.49168s-15.491679-6.816339-15.49168-15.49168c0-211.926172 172.577307-384.50348 384.50348-384.503479s384.50348 172.577307 384.50348 384.503479c0 8.67534-6.816339 15.491679-15.49168 15.49168z" p-id="4181" fill="#515151"></path></svg>