<?xml version="1.0" standalone="no"?><!DOCTYPE svg PUBLIC "-//W3C//DTD SVG 1.1//EN" "http://www.w3.org/Graphics/SVG/1.1/DTD/svg11.dtd"><svg t="1640135598273" class="icon" viewBox="0 0 1024 1024" version="1.1" xmlns="http://www.w3.org/2000/svg" p-id="7537" width="64" height="64" xmlns:xlink="http://www.w3.org/1999/xlink"><defs><style type="text/css"></style></defs><path d="M469.333333 106.666667v810.666666a21.333333 21.333333 0 0 1-36.42 15.086667L225.833333 725.333333H53.333333a53.393333 53.393333 0 0 1-53.333333-53.333333V352a53.393333 53.393333 0 0 1 53.333333-53.333333h172.5l207.08-207.086667A21.333333 21.333333 0 0 1 469.333333 106.666667z m176.753334 299.726666a21.333333 21.333333 0 0 0-33.486667 26.433334 127.366667 127.366667 0 0 1 0 158.346666 21.333333 21.333333 0 0 0 33.493333 26.433334 170.733333 170.733333 0 0 0 0-211.213334z" fill="#515151" p-id="7538"></path></svg>