<?xml version="1.0" standalone="no"?><!DOCTYPE svg PUBLIC "-//W3C//DTD SVG 1.1//EN" "http://www.w3.org/Graphics/SVG/1.1/DTD/svg11.dtd"><svg t="1640135657202" class="icon" viewBox="0 0 1024 1024" version="1.1" xmlns="http://www.w3.org/2000/svg" p-id="9275" width="64" height="64" xmlns:xlink="http://www.w3.org/1999/xlink"><defs><style type="text/css"></style></defs><path d="M0.002433 672V352a53.393333 53.393333 0 0 1 53.333334-53.333333h172.5l207.08-207.086667A21.333333 21.333333 0 0 1 469.335767 106.666667v189.413333L41.435767 724A53.42 53.42 0 0 1 0.002433 672z m633.753334-452.42a21.333333 21.333333 0 0 0-30.173334 0l-597.333333 597.333333a21.333333 21.333333 0 0 0 30.173333 30.173334L158.1691 725.333333h67.666667l207.08 207.086667A21.333333 21.333333 0 0 0 469.335767 917.333333V414.166667l164.42-164.413334a21.333333 21.333333 0 0 0 0-30.173333z" fill="#515151" p-id="9276"></path></svg>